<svg width="16" height="16" viewBox="0 0 16 16" fill="none" xmlns="http://www.w3.org/2000/svg">
<g id="YouTube">
<path id="Vector" d="M6.66683 9.99992L10.1268 7.99992L6.66683 5.99992V9.99992ZM14.3735 4.77992C14.4602 5.09325 14.5202 5.51325 14.5602 6.04659C14.6068 6.57992 14.6268 7.03992 14.6268 7.43992L14.6668 7.99992C14.6668 9.45992 14.5602 10.5333 14.3735 11.2199C14.2068 11.8199 13.8202 12.2066 13.2202 12.3733C12.9068 12.4599 12.3335 12.5199 11.4535 12.5599C10.5868 12.6066 9.7935 12.6266 9.06016 12.6266L8.00016 12.6666C5.20683 12.6666 3.46683 12.5599 2.78016 12.3733C2.18016 12.2066 1.7935 11.8199 1.62683 11.2199C1.54016 10.9066 1.48016 10.4866 1.44016 9.95325C1.3935 9.41992 1.3735 8.95992 1.3735 8.55992L1.3335 7.99992C1.3335 6.53992 1.44016 5.46659 1.62683 4.77992C1.7935 4.17992 2.18016 3.79325 2.78016 3.62659C3.0935 3.53992 3.66683 3.47992 4.54683 3.43992C5.4135 3.39325 6.20683 3.37325 6.94016 3.37325L8.00016 3.33325C10.7935 3.33325 12.5335 3.43992 13.2202 3.62659C13.8202 3.79325 14.2068 4.17992 14.3735 4.77992Z" fill="#1E1231"/>
</g>
</svg>
