<svg width="100" height="221" viewBox="0 0 100 221" fill="none" xmlns="http://www.w3.org/2000/svg">
<g id="$">
<g id="Group">
<path id="Vector" d="M99.111 171.285C99.111 198.608 76.8782 220.841 49.5555 220.841C22.2328 220.841 0 198.608 0 171.285C0 143.963 22.2328 121.73 49.5555 121.73C76.8782 121.73 99.111 143.963 99.111 171.285ZM3.57015 171.285C3.57015 196.641 24.2001 217.271 49.5555 217.271C74.9109 217.271 95.5408 196.641 95.5408 171.285C95.5408 145.93 74.9109 125.3 49.5555 125.3C24.2001 125.3 3.57015 145.93 3.57015 171.285Z" fill="#478BF9"/>
<path id="Vector_2" d="M99.1136 50.1495C99.1136 51.1383 98.3122 51.9294 97.3338 51.9294C96.3553 51.9294 95.5539 51.1279 95.5539 50.1495C95.5539 24.7941 74.924 4.16415 49.5685 4.16415C24.2131 4.16415 3.58317 24.7941 3.58317 50.1495C3.58317 51.1383 2.78169 51.9294 1.80327 51.9294C0.824862 51.9294 0.0234375 51.1279 0.0234375 50.1495C0.0234375 22.8268 22.2563 0.593994 49.5789 0.593994C76.9016 0.593994 99.1344 22.8268 99.1344 50.1495H99.1136Z" fill="#478BF9"/>
<g id="Group_2">
<path id="Vector_3" d="M40.012 162.532C40.012 164.353 41.2506 165.935 43.0201 166.372L46.382 167.215V158.566H43.9881C41.8023 158.566 40.0224 160.346 40.0224 162.532H40.012Z" fill="#478BF9"/>
<path id="Vector_4" d="M52.7293 184.005H55.1234C57.3092 184.005 59.0891 182.225 59.0891 180.039C59.0891 178.217 57.8504 176.635 56.081 176.198L52.719 175.355V184.005H52.7293Z" fill="#478BF9"/>
<path id="Vector_5" d="M49.5564 130.962C27.3235 130.962 9.2229 149.052 9.2229 171.296C9.2229 193.539 27.3131 211.629 49.5564 211.629C71.7996 211.629 89.8898 193.539 89.8898 171.296C89.8898 149.052 71.7996 130.962 49.5564 130.962ZM65.4608 164.926H59.1011V161.74C59.1011 159.992 57.6751 158.555 55.916 158.555H52.731V168.798L57.6335 170.026C62.2341 171.181 65.4504 175.293 65.4504 180.039C65.4504 185.732 60.8185 190.364 55.125 190.364H52.731V198.421H46.3713V190.364H43.1863C37.9195 190.364 33.6416 186.086 33.6416 180.82V177.635H40.0012V180.82C40.0012 182.568 41.4272 184.005 43.1863 184.005H46.3713V173.762L41.4688 172.534C36.8682 171.379 33.652 167.267 33.652 162.521C33.652 156.828 38.2838 152.196 43.9773 152.196H46.3713V144.14H52.731V152.196H55.916C61.1828 152.196 65.4608 156.474 65.4608 161.74V164.926Z" fill="#478BF9"/>
</g>
</g>
<g id="Group_3">
<path id="Vector_6" d="M99.173 49.3897V168.985C99.173 169.974 98.3716 170.765 97.3932 170.765C96.4148 170.765 95.6133 169.963 95.6133 168.985V49.3897C95.6133 48.4009 96.4148 47.6099 97.3932 47.6099C98.3716 47.6099 99.173 48.4113 99.173 49.3897Z" fill="#478BF9"/>
</g>
<g id="Group_4">
<path id="Vector_7" d="M3.63786 49.1294V168.725C3.63786 169.714 2.83637 170.505 1.85796 170.505C0.879549 170.505 0.078125 169.703 0.078125 168.725V49.1294C0.078125 48.1406 0.879549 47.3496 1.85796 47.3496C2.83637 47.3496 3.63786 48.151 3.63786 49.1294Z" fill="#478BF9"/>
</g>
</g>
</svg>
