<svg width="100" height="100" viewBox="0 0 100 100" fill="none" xmlns="http://www.w3.org/2000/svg">
<g id="Soccer">
<path id="Vector" d="M49.8771 99.1527C22.5544 99.1527 0.332031 76.9198 0.332031 49.6076C0.332031 22.2953 22.5649 0.0625 49.8771 0.0625C77.1894 0.0625 99.4223 22.2953 99.4223 49.6076C99.4223 76.9198 77.1894 99.1527 49.8771 99.1527ZM49.8771 3.36202C24.376 3.36202 3.63155 24.1064 3.63155 49.6076C3.63155 75.1087 24.376 95.8531 49.8771 95.8531C75.3783 95.8531 96.1227 75.1087 96.1227 49.6076C96.1227 24.1064 75.3783 3.36202 49.8771 3.36202Z" fill="#9DADF2"/>
<g id="Group">
<path id="Vector_2" d="M65.9516 18.6731C65.7018 18.6731 65.452 18.6211 65.223 18.5066C60.4246 16.1334 55.2619 14.926 49.8806 14.926C44.4994 14.926 39.3367 16.1334 34.5383 18.5066C33.9034 18.8188 33.1436 18.6939 32.6439 18.1943L24.1297 9.68007C23.7654 9.31577 23.5988 8.81614 23.6613 8.30612C23.7237 7.7961 24.0152 7.34854 24.4524 7.08833C32.1235 2.48771 40.9188 0.0625 49.8911 0.0625C58.8633 0.0625 67.6586 2.49812 75.3298 7.08833C75.7669 7.34854 76.0584 7.7961 76.1208 8.30612C76.1833 8.81614 76.0063 9.31577 75.6524 9.68007L67.1382 18.1943C66.8155 18.5066 66.3992 18.6731 65.962 18.6731H65.9516ZM49.8806 11.6265C55.366 11.6265 60.6536 12.7714 65.6081 15.0301L71.77 8.86817C65.0669 5.25637 57.5414 3.36202 49.8806 3.36202C42.2199 3.36202 34.6945 5.25637 27.9913 8.86817L34.1532 15.0301C39.1077 12.7714 44.3953 11.6265 49.8806 11.6265Z" fill="#9DADF2"/>
<path id="Vector_3" d="M49.8789 99.1526C40.9066 99.1526 32.1113 96.717 24.4401 92.1268C24.003 91.8666 23.7115 91.419 23.6491 90.909C23.5866 90.399 23.7636 89.8994 24.1175 89.5351L32.6317 81.0208C33.1314 80.5212 33.9016 80.3963 34.5261 80.7086C39.3245 83.0817 44.4872 84.2891 49.8684 84.2891C55.2497 84.2891 60.4124 83.0817 65.2108 80.7086C65.8458 80.3963 66.6055 80.5212 67.1051 81.0208L75.6195 89.5351C75.9838 89.8994 76.1503 90.399 76.0878 90.909C76.0253 91.419 75.7339 91.8666 75.2967 92.1268C67.6256 96.7274 58.8303 99.1526 49.8581 99.1526H49.8789ZM27.9895 90.347C34.6927 93.9588 42.2181 95.8531 49.8789 95.8531C57.5396 95.8531 65.0651 93.9588 71.7683 90.347L65.6063 84.1851C60.6518 86.4438 55.3642 87.5887 49.8789 87.5887C44.3935 87.5887 39.1059 86.4438 34.1514 84.1851L27.9895 90.347Z" fill="#9DADF2"/>
<path id="Vector_4" d="M90.9828 75.8477C90.5457 75.8477 90.1293 75.6812 89.8171 75.3689L81.3028 66.8546C80.8032 66.355 80.6783 65.5848 80.9906 64.9603C83.3637 60.1619 84.5711 54.9992 84.5711 49.618C84.5711 44.2367 83.3637 39.074 80.9906 34.2756C80.6783 33.6407 80.8032 32.8705 81.3028 32.3813L89.8171 23.867C90.1814 23.5027 90.681 23.3361 91.191 23.3986C91.701 23.461 92.1486 23.7525 92.4088 24.1897C97.0094 31.8608 99.4346 40.6561 99.4346 49.6284C99.4346 58.6006 97.0094 67.3959 92.4088 75.0671C92.1486 75.5042 91.701 75.7957 91.191 75.8581C91.1181 75.8581 91.0557 75.8581 90.9828 75.8581V75.8477ZM84.4567 65.335L90.6185 71.4969C94.2303 64.7938 96.1247 57.2683 96.1247 49.6075C96.1247 41.9468 94.2303 34.4214 90.6185 27.7182L84.4567 33.8801C86.7153 38.8346 87.8602 44.1222 87.8602 49.6075C87.8602 55.0929 86.7153 60.3805 84.4567 65.335Z" fill="#9DADF2"/>
<path id="Vector_5" d="M8.77342 75.8478C8.70056 75.8478 8.6381 75.8478 8.57565 75.8374C8.06563 75.7749 7.61808 75.4835 7.35786 75.0463C2.75724 67.3751 0.332031 58.5799 0.332031 49.6076C0.332031 40.6354 2.75724 31.8401 7.35786 24.1689C7.61808 23.7317 8.06563 23.4403 8.57565 23.3778C9.08568 23.3154 9.5853 23.4923 9.9496 23.8462L18.4639 32.3605C18.9635 32.8601 19.0884 33.6304 18.7761 34.2549C16.4029 39.0533 15.1955 44.2159 15.1955 49.5972C15.1955 54.9785 16.4029 60.1411 18.7761 64.9395C19.0884 65.5744 18.9635 66.3447 18.4639 66.8339L9.9496 75.3481C9.63734 75.6604 9.221 75.8374 8.78384 75.8374L8.77342 75.8478ZM9.1377 27.7183C5.5259 34.4214 3.63155 41.9469 3.63155 49.6076C3.63155 57.2684 5.5259 64.7938 9.1377 71.497L15.2997 65.335C13.041 60.3805 11.896 55.093 11.896 49.6076C11.896 44.1223 13.041 38.8347 15.2997 33.8802L9.1377 27.7183Z" fill="#9DADF2"/>
</g>
<path id="Vector_6" d="M49.8782 11.6162C28.9361 11.6162 11.8867 28.6551 11.8867 49.6077C11.8867 70.5603 28.9257 87.5993 49.8782 87.5993C70.8308 87.5993 87.8698 70.5603 87.8698 49.6077C87.8698 28.6551 70.8308 11.6162 49.8782 11.6162ZM71.2576 37.1278C73.0583 40.2087 74.1512 43.5707 74.5051 47.1409C74.5155 47.2866 74.453 47.4219 74.3281 47.4948C71.6115 49.1602 69.1759 51.2003 67.0733 53.5838C66.9796 53.6983 66.8235 53.7399 66.6882 53.6879L61.9939 52.1579C61.8586 52.1162 61.7649 52.0018 61.7441 51.856C61.2133 47.9736 60.0059 44.2577 58.1531 40.802C58.0907 40.6771 58.1011 40.5314 58.1844 40.4169L61.0884 36.42C61.1612 36.3263 61.2757 36.2639 61.3902 36.2639C61.4214 36.2639 61.4422 36.2639 61.4735 36.2639C64.5752 36.9508 67.7603 37.1798 70.9245 36.9196C71.0703 36.9092 71.2055 36.982 71.2784 37.1069L71.2576 37.1278ZM59.1836 52.5117C59.194 52.6158 59.1627 52.7199 59.1003 52.7928C56.6334 55.6343 53.49 57.9138 50.024 59.371C49.9303 59.4127 49.8366 59.4127 49.7429 59.371C46.2768 57.9034 43.1335 55.6239 40.6666 52.7928C40.6042 52.7199 40.5729 52.6158 40.5833 52.5117C41.0621 48.7438 42.2383 45.1424 44.0598 41.8117C44.1119 41.718 44.1951 41.6556 44.2992 41.6347C46.1311 41.2496 48.0047 41.0519 49.8887 41.0519C51.7726 41.0519 53.6462 41.2496 55.4781 41.6347C55.5822 41.6556 55.6654 41.718 55.7175 41.8117C57.539 45.1424 58.7048 48.7438 59.194 52.5117H59.1836ZM58.6215 26.6775C58.6215 26.6775 58.7464 26.5734 58.8713 26.5734C58.9129 26.5734 58.965 26.5734 59.017 26.6047C62.8474 28.1243 66.2718 30.6224 68.9364 33.8178C69.0718 33.974 69.0197 34.1405 68.9885 34.203C68.9677 34.255 68.874 34.4216 68.6555 34.4216C66.2927 34.4528 63.9403 34.1822 61.6608 33.6409C61.5671 33.6201 61.4839 33.5576 61.4319 33.4743C60.2141 31.4655 59.2356 29.3005 58.5278 27.0522C58.4654 26.8545 58.5799 26.7192 58.6319 26.6775H58.6215ZM44.6219 25.4285C48.0671 24.6895 51.6997 24.6895 55.145 25.4285C55.2803 25.4597 55.3948 25.5638 55.4261 25.6991C56.1651 28.7905 57.362 31.7465 58.9754 34.484C59.0482 34.6089 59.0379 34.765 58.9546 34.8899L56.0714 38.866C55.9881 38.9805 55.8424 39.043 55.7071 39.0117C51.8975 38.2415 47.8694 38.2415 44.0598 39.0117C43.9245 39.043 43.7788 38.9805 43.6955 38.866L40.8124 34.8899C40.7291 34.7754 40.7187 34.6089 40.7915 34.484C42.4049 31.7465 43.6018 28.7905 44.3408 25.6991C44.3721 25.5638 44.4866 25.4597 44.6219 25.4285ZM30.8304 33.8178C33.4951 30.612 36.9195 28.1139 40.7499 26.6047C40.802 26.5839 40.8539 26.5734 40.8956 26.5734C41.0309 26.5734 41.1142 26.6463 41.1454 26.6775C41.1974 26.7296 41.312 26.8545 41.2495 27.0522C40.5417 29.3109 39.5633 31.4655 38.3455 33.4743C38.2934 33.5576 38.2102 33.6201 38.1165 33.6409C35.837 34.1822 33.4847 34.4528 31.1219 34.4216C30.9033 34.4216 30.8097 34.255 30.7888 34.203C30.7576 34.1405 30.7056 33.974 30.8409 33.8178H30.8304ZM28.5093 37.1278C28.5718 37.0133 28.6967 36.9404 28.832 36.9404C28.832 36.9404 28.8528 36.9404 28.8632 36.9404C32.0378 37.1902 35.2229 36.9717 38.3143 36.2847C38.46 36.2535 38.6057 36.3055 38.689 36.4304L41.593 40.4273C41.6763 40.5418 41.6866 40.6979 41.6242 40.8124C39.7715 44.2681 38.564 47.984 38.0332 51.8664C38.0124 52.0017 37.9187 52.1162 37.7834 52.1683L33.0891 53.6983C32.9538 53.7399 32.7977 53.6983 32.704 53.5943C30.6014 51.2107 28.1659 49.1705 25.4492 47.5052C25.3347 47.4323 25.2618 47.297 25.2722 47.1513C25.6261 43.5811 26.7191 40.2088 28.5198 37.1382L28.5093 37.1278ZM29.6438 62.7747C29.5814 62.9724 29.4045 63.0141 29.3316 63.0245C29.2587 63.0245 29.0922 63.0244 28.9777 62.8579C26.7606 59.371 25.4492 55.3325 25.189 51.1899C25.1786 50.9817 25.3139 50.8776 25.3763 50.8464C25.4388 50.8151 25.6053 50.7423 25.7719 50.8672C27.6975 52.2307 29.4461 53.8337 30.9762 55.6135C31.0386 55.6864 31.0698 55.7801 31.0594 55.8842C30.8721 58.2261 30.3933 60.5472 29.6334 62.7851L29.6438 62.7747ZM39.9276 72.2778C36.6801 70.8518 33.8177 68.7596 31.4237 66.0742C31.3301 65.9701 31.2988 65.814 31.3509 65.6891C32.5687 62.7538 33.3389 59.6625 33.6408 56.4982C33.6512 56.3525 33.7553 56.2276 33.8906 56.186L38.5329 54.6767C38.5329 54.6767 38.6057 54.6559 38.6473 54.6559C38.7514 54.6559 38.8451 54.6976 38.918 54.7809C41.5201 57.6953 44.778 60.0684 48.3482 61.6401C48.4835 61.7026 48.5667 61.8275 48.5667 61.9732V66.8548C48.5667 67.0006 48.4835 67.1359 48.3482 67.1879C45.4338 68.4474 42.7275 70.144 40.3023 72.2153C40.1982 72.309 40.0421 72.3298 39.9172 72.2673L39.9276 72.2778ZM56.3003 73.3082C56.2899 73.3811 56.2379 73.5476 56.0298 73.5996C52.012 74.6197 47.7653 74.6197 43.7475 73.5996C43.5498 73.5476 43.4874 73.3811 43.477 73.3082C43.4666 73.2354 43.4457 73.0688 43.6226 72.9335C45.517 71.5284 47.5779 70.3521 49.7533 69.4466C49.847 69.4049 49.9407 69.4049 50.0344 69.4466C52.1994 70.3521 54.2603 71.5284 56.1651 72.9335C56.3316 73.0584 56.3212 73.2354 56.3108 73.3082H56.3003ZM68.364 66.0846C65.97 68.77 63.1076 70.8518 59.8601 72.2778C59.7248 72.3402 59.5791 72.3089 59.475 72.2257C57.0498 70.1544 54.3539 68.4578 51.4291 67.1983C51.2938 67.1359 51.2106 67.011 51.2106 66.8653V61.9836C51.2106 61.8379 51.2938 61.7026 51.4291 61.6505C54.9993 60.0788 58.2676 57.7056 60.8593 54.7912C60.9322 54.7079 61.0259 54.6663 61.13 54.6663C61.1716 54.6663 61.2028 54.6663 61.2444 54.6871L65.8867 56.1964C66.022 56.238 66.1261 56.3629 66.1365 56.5087C66.4384 59.6729 67.2086 62.7539 68.4264 65.6995C68.4785 65.8244 68.4576 65.9805 68.3536 66.0846H68.364ZM70.7996 62.8683C70.6851 63.0453 70.5082 63.0453 70.4457 63.0349C70.3728 63.0349 70.2063 62.9829 70.1335 62.7851C69.384 60.5472 68.9053 58.2261 68.7075 55.8842C68.7075 55.7905 68.7283 55.6864 68.7907 55.6135C70.3208 53.8337 72.0694 52.2411 73.995 50.8672C74.0679 50.8152 74.1408 50.7943 74.2032 50.7943C74.2865 50.7943 74.3489 50.8255 74.3906 50.8464C74.453 50.8776 74.5988 50.9817 74.578 51.1899C74.3178 55.3325 73.0063 59.371 70.7892 62.8579L70.7996 62.8683Z" fill="#9DADF2"/>
</g>
</svg>
